# xmcd
#
# Track frame offsets:
# 150
# 18973
# 35607
# 50880
# 71052
# 89231
# 117404
# 132733
# 148731
# 168034
# 185102
# 199238
#
# Disc length: 2840 seconds
#
#
# Revision: 7
# Processed by: cddbd v1.4PL0 Copyright (c) Steve Scherf et al.
# Submitted via: FreeRIP 2.50 
#
DISCID=c20b160c
DTITLE=Morcheeba - Charango
DYEAR=2002
DGENRE=Jazz
TTITLE0=Slow Down
TTITLE1=Otherwise
TTITLE2=Aqualung
TTITLE3=Sao Paolo
TTITLE4=Charango
TTITLE5=What New York Couples Fight About
TTITLE6=Undress Me Now
TTITLE7=Way Beyond
TTITLE8=Woman Lose Weight
TTITLE9=Get Along
TTITLE10=Public Displays Of Affection
TTITLE11=The Great London Traffic Warden Massacre
EXTD=YEAR: 2002
EXTT0=
EXTT1=
EXTT2=
EXTT3=
EXTT4=
EXTT5=
EXTT6=
EXTT7=
EXTT8=
EXTT9=
EXTT10=
EXTT11=
PLAYORDER=
